<!-- icon666.com - MILLIONS vector ICONS FREE --><svg xmlns="http://www.w3.org/2000/svg" xmlns:xlink="http://www.w3.org/1999/xlink" version="1.1" id="cpuusage" x="0px" y="0px" viewBox="0 0 206.6276 210.1444" enable-background="new 0 0 206.6276 210.1444" xml:space="preserve"><g><path fill="#5CB0FF" d="M29.0739,56.7714l63.2109,44.8828c3.9727,2.8242,10.9492,2.8242,14.9258,0l63.2109-44.8828 c1.3887-0.9844,2.1777-2.0977,2.1172-2.9805c-0.0625-0.8809-1-1.873-2.5078-2.6523l-61.4688-31.7617 c-2.3477-1.2129-5.5801-1.8184-8.8145-1.8184c-3.2324,0-6.4668,0.6055-8.8145,1.8184L29.4645,51.1385 c-1.502,0.7773-2.4355,1.7695-2.498,2.6562C26.9039,54.6776,27.691,55.7909,29.0739,56.7714z"></path><path fill="#1C71DA" d="M24.441,63.2948l63.2109,44.8828c3.3926,2.4082,7.7422,3.6113,12.0957,3.6113 c4.3516,0,8.7031-1.2051,12.0957-3.6113l63.209-44.8828c3.7363-2.6504,5.7285-6.3203,5.4668-10.0645 c-0.2637-3.7441-2.748-7.0957-6.8164-9.1973L112.234,12.2714c-6.998-3.6211-17.9707-3.6211-24.9727,0L25.7926,44.0331 c-4.0625,2.0996-6.543,5.4531-6.8066,9.2012C18.7223,56.9784,20.7125,60.6464,24.441,63.2948z M29.4645,51.1385l61.4688-31.7617 c2.3477-1.2129,5.582-1.8184,8.8145-1.8184c3.2344,0,6.4668,0.6055,8.8145,1.8184l61.4688,31.7617 c1.5078,0.7793,2.4453,1.7715,2.5078,2.6523c0.0605,0.8828-0.7285,1.9961-2.1172,2.9805l-63.2109,44.8828 c-3.9766,2.8242-10.9531,2.8242-14.9258,0L29.0739,56.7714c-1.3828-0.9805-2.1699-2.0938-2.1074-2.9766 C27.0289,52.9081,27.9625,51.9159,29.4645,51.1385z"></path><path fill="#1C71DA" d="M173.7028,76.0331l-3.6719,7.1055c1.5078,0.7793,2.4453,1.7715,2.5078,2.6523 c0.0605,0.8828-0.7285,1.9961-2.1172,2.9805l-63.2109,44.8828c-3.9766,2.8242-10.9531,2.8242-14.9258,0L29.0739,88.7714 c-1.3828-0.9805-2.1699-2.0938-2.1074-2.9766c0.0625-0.8867,0.9961-1.8789,2.498-2.6562l-3.6719-7.1055 c-4.0625,2.0996-6.543,5.4531-6.8066,9.2012c-0.2637,3.7441,1.7266,7.4121,5.4551,10.0605l63.2109,44.8828 c3.3926,2.4082,7.7422,3.6113,12.0957,3.6113c4.3516,0,8.7031-1.2051,12.0957-3.6113l63.209-44.8828 c3.7363-2.6504,5.7285-6.3203,5.4668-10.0645C180.2555,81.4862,177.7711,78.1346,173.7028,76.0331z"></path><path fill="#1C71DA" d="M173.7028,108.0331l-3.6719,7.1055c1.5078,0.7793,2.4453,1.7715,2.5078,2.6523 c0.0605,0.8828-0.7285,1.9961-2.1172,2.9805l-63.2109,44.8828c-3.9766,2.8242-10.9531,2.8242-14.9258,0l-63.2109-44.8828 c-1.3828-0.9805-2.1699-2.0938-2.1074-2.9766c0.0625-0.8867,0.9961-1.8789,2.498-2.6562l-3.6719-7.1055 c-4.0625,2.0996-6.543,5.4531-6.8066,9.2012c-0.2637,3.7441,1.7266,7.4121,5.4551,10.0605l63.2109,44.8828 c3.3926,2.4082,7.7422,3.6113,12.0957,3.6113c4.3516,0,8.7031-1.2051,12.0957-3.6113l63.209-44.8828 c3.7363-2.6504,5.7285-6.3203,5.4668-10.0645C180.2555,113.4862,177.7711,110.1346,173.7028,108.0331z"></path><path fill="#1C71DA" d="M173.7028,140.0331l-3.6719,7.1055c1.5078,0.7793,2.4453,1.7715,2.5078,2.6523 c0.0605,0.8828-0.7285,1.9961-2.1172,2.9805l-63.2109,44.8828c-3.9766,2.8242-10.9531,2.8242-14.9258,0l-63.2109-44.8828 c-1.3828-0.9805-2.1699-2.0938-2.1074-2.9766c0.0625-0.8867,0.9961-1.8789,2.498-2.6562l-3.6719-7.1055 c-4.0625,2.0996-6.543,5.4531-6.8066,9.2012c-0.2637,3.7441,1.7266,7.4121,5.4551,10.0605l63.2109,44.8828 c3.3926,2.4082,7.7422,3.6113,12.0957,3.6113c4.3516,0,8.7031-1.2051,12.0957-3.6113l63.209-44.8828 c3.7363-2.6504,5.7285-6.3203,5.4668-10.0645C180.2555,145.4862,177.7711,142.1346,173.7028,140.0331z"></path></g><path fill="#FF5D5D" d="M4.0001,22.1444c-1.0239,0-2.0474-0.3904-2.8286-1.1716c-1.562-1.562-1.562-4.0947,0-5.6567L15.3136,1.1744 c1.5635-1.562,4.0957-1.562,5.6572,0c1.562,1.562,1.562,4.0947,0,5.6567L6.8287,20.9728 C6.0475,21.7538,5.0236,22.1444,4.0001,22.1444z"></path><path fill="#FF5D5D" d="M18.1422,22.1425c-1.0239,0-2.0474-0.3904-2.8286-1.1716L1.1715,6.8282c-1.562-1.562-1.562-4.0947,0-5.6567 c1.5635-1.562,4.0957-1.562,5.6572,0l14.1421,14.1426c1.562,1.562,1.562,4.0947,0,5.6567 C20.1896,21.7518,19.1656,22.1425,18.1422,22.1425z"></path><path fill="#00D40B" d="M182.0001,210.1444c-7.7197,0-14-6.2803-14-14s6.2803-14,14-14s14,6.2803,14,14 S189.7198,210.1444,182.0001,210.1444z M182.0001,190.1444c-3.3086,0-6,2.6917-6,6s2.6914,6,6,6s6-2.6917,6-6 S185.3087,190.1444,182.0001,190.1444z"></path><path fill="#FFC504" d="M191.3136,44.7694c-1.0239,0-2.0474-0.3904-2.8286-1.1716l-11.3135-11.3135 c-1.562-1.562-1.562-4.0947,0-5.6567l11.3135-11.3135c1.5625-1.562,4.0952-1.5625,5.6567,0l11.314,11.3135 c0.7505,0.75,1.1719,1.7676,1.1719,2.8284s-0.4214,2.0784-1.1719,2.8284l-11.314,11.3135 C193.361,44.3788,192.337,44.7694,191.3136,44.7694z M185.6569,29.4559l5.6567,5.6567l5.6572-5.6567l-5.6572-5.6567 L185.6569,29.4559z"></path></svg>