<?xml version="1.0" encoding="utf-8"?>
<!-- Uploaded to: SVG Repo, www.svgrepo.com, Generator: SVG Repo Mixer Tools -->
<svg width="800px" height="800px" viewBox="0 0 1024 1024" class="icon"  version="1.1" xmlns="http://www.w3.org/2000/svg"><path d="M332.8 307.2H230.4a51.2 51.2 0 0 0-51.2 51.2v435.2a51.2 51.2 0 0 0 51.2 51.2h102.4a51.2 51.2 0 0 0 51.2-51.2V358.4a51.2 51.2 0 0 0-51.2-51.2z m-102.4 51.2h102.4v435.2H230.4V358.4z" fill="#ED892D" /><path d="M735.4112 441.088l-50.0992 10.6496a51.2 51.2 0 0 0-39.424 60.7232l58.5472 275.456a51.2 51.2 0 0 0 60.7232 39.424l50.0736-10.6496a51.2 51.2 0 0 0 39.424-60.7232L796.16 480.512a51.2 51.2 0 0 0-60.7232-39.424z m-39.424 60.7232l50.048-10.6496 58.5472 275.456-50.0736 10.6496-58.5472-275.456z" fill="#BE4BDB" /><path d="M588.8 204.8h-102.4a51.2 51.2 0 0 0-51.2 51.2v537.6a51.2 51.2 0 0 0 51.2 51.2h102.4a51.2 51.2 0 0 0 51.2-51.2V256a51.2 51.2 0 0 0-51.2-51.2z m-102.4 51.2h102.4v537.6h-102.4V256z" fill="#ED892D" /><path d="M588.8 281.6v51.2h-153.6v-51.2zM588.8 665.6v51.2h-153.6v-51.2zM358.4 409.6v51.2H204.8v-51.2zM332.8 665.6v51.2H179.2v-51.2z" fill="#ED892D" /><path d="M795.0336 675.328l10.6496 50.0736-100.1728 21.2992-10.624-50.0992z" fill="#BE4BDB" /></svg>