<svg fill="#ffffff" height="30px" width="30px" version="1.1" id="Layer_1"
    xmlns="http://www.w3.org/2000/svg"
    xmlns:xlink="http://www.w3.org/1999/xlink" viewBox="0 0 512 512" xml:space="preserve">
<g>
    <g>
        <path
            d="M383.96,185.022c-7.434-7.439-17.323-11.536-27.844-11.536c-10.52,0-20.41,4.096-27.846,11.531l-8.812,8.806
c-0.068,0.065-0.135,0.13-0.202,0.196c-0.065,0.065-0.13,0.131-0.193,0.198L133.466,379.813c0,0,0,0,0,0.001
c-0.005,0.004-0.009,0.009-0.015,0.015c-0.001,0-0.001,0.001-0.002,0.002c-0.004,0.004-0.008,0.009-0.014,0.014
c0,0.001,0,0.001,0,0.001c-1.407,1.418-2.324,3.141-2.751,4.953l-13.873,54.672c-0.906,3.57,0.135,7.354,2.74,9.959
c1.983,1.984,4.651,3.06,7.388,3.06c0.856,0,1.719-0.106,2.568-0.321l54.845-13.914c1.824-0.463,3.489-1.411,4.819-2.74
l185.787-185.799l8.997-9.003c7.444-7.435,11.542-17.328,11.542-27.852C395.497,202.34,391.398,192.451,383.96,185.022z
 M141.383,427.595l5.078-20.01l14.935,14.933L141.383,427.595z M181.783,413.35l-26.152-26.147l171.019-171.014l26.144,26.14
L181.783,413.35z M369.181,225.936l-1.611,1.612l-26.139-26.135l1.616-1.615c3.49-3.491,8.132-5.414,13.071-5.414
c4.937,0,9.576,1.922,13.07,5.418c3.491,3.487,5.414,8.125,5.414,13.06C374.601,217.801,372.679,222.442,369.181,225.936z" />
    </g>
</g>
<g>
    <g>
        <path d="M466.693,118.265H364.669V73.323c0-29.378-23.9-53.278-53.276-53.278H200.607c-29.376,0-53.276,23.9-53.276,53.278v44.942
H45.307C20.324,118.265,0,140.419,0,167.65v255.937v18.986c0,27.23,20.324,49.382,45.307,49.382h23.145h375.097h23.144
c24.982,0,45.307-22.152,45.307-49.382v-18.986V167.65C512,140.419,491.676,118.265,466.693,118.265z M168.229,73.323
c0-17.854,14.525-32.38,32.378-32.38h110.785c17.853,0,32.378,14.526,32.378,32.38v44.942H168.229V73.323z M45.307,471.055v0.001
c-13.459,0-24.409-12.778-24.409-28.484v-7.379c17.812,4.012,31.882,18.058,35.927,35.862H45.307z M491.102,442.573
c0,15.706-10.95,28.484-24.409,28.484h-11.518c4.046-17.804,18.114-31.85,35.927-35.862V442.573z M491.102,413.937
c-29.352,4.52-52.634,27.772-57.191,57.12H78.089c-4.558-29.348-27.839-52.6-57.191-57.12V167.65
c0-15.708,10.95-28.487,24.409-28.487h421.386c13.459,0,24.409,12.779,24.409,28.487V413.937z" />
    </g>
</g>
<g>
    <g>
        <path d="M68.451,217.548c-5.771,0-10.449,4.678-10.449,10.449v159.204c0,5.771,4.678,10.449,10.449,10.449
c5.771,0,10.449-4.679,10.449-10.449V227.997C78.9,222.226,74.222,217.548,68.451,217.548z" />
    </g>
</g>
<g>
    <g>
        <path d="M68.451,162.344c-5.771,0-10.449,4.678-10.449,10.449v23.714c0,5.771,4.678,10.449,10.449,10.449
c5.771,0,10.449-4.678,10.449-10.449v-23.714C78.9,167.022,74.222,162.344,68.451,162.344z" />
    </g>
</g>
</svg>